<?xml version="1.0" encoding="UTF-8"?>
<svg width="500" height="126" viewBox="0 0 500 126" fill="none" xmlns="http://www.w3.org/2000/svg">
  <!-- "mempool" text -->
  <path d="M 219.548 86.198 L 219.548 63.833 C 219.548 60.359 218.746 57.686 217.163 55.919 C 215.601 54.151 213.237 53.267 210.195 53.267 C 206.762 53.267 203.946 54.377 202.013 56.453 C 200.081 58.55 199.053 61.633 199.053 65.395 L 199.053 86.219 L 191.447 86.219 L 191.447 63.833 C 191.447 56.823 188.282 53.267 182.032 53.267 C 178.6 53.267 175.783 54.377 173.851 56.453 C 171.919 58.55 170.891 61.633 170.891 65.395 L 170.891 86.219 L 163.285 86.219 L 163.285 46.422 L 170.685 46.422 L 170.685 50.759 C 173.687 47.799 178.003 46.175 182.999 46.175 C 188.96 46.175 193.667 48.498 196.36 52.753 C 199.608 48.559 204.85 46.175 210.955 46.175 C 215.93 46.175 219.877 47.614 222.693 50.43 C 225.632 53.39 227.174 57.871 227.154 63.36 L 227.154 86.198 L 219.548 86.198 Z" fill="white"/>
  <path d="M 255.397 86.568 C 243.145 86.568 234.594 78.243 234.594 66.32 C 234.594 54.644 242.775 46.175 254.04 46.175 C 265.387 46.175 273.342 54.459 273.383 66.32 C 273.383 66.443 273.363 66.587 273.363 66.711 C 273.342 66.834 273.342 66.937 273.342 67.04 L 273.342 67.101 L 273.322 67.163 C 273.281 67.368 273.281 67.595 273.281 67.862 L 273.281 69.157 L 242.343 69.157 C 243.412 75.488 248.49 79.538 255.5 79.538 C 259.796 79.538 263.393 77.996 265.901 75.098 L 266.888 74.008 L 271.41 79.168 L 270.732 80.052 C 267.196 84.245 261.749 86.568 255.397 86.568 Z M 265.798 62.846 C 265.284 60.05 263.989 57.666 262.036 55.919 C 259.919 54.027 257.144 53.041 254.061 53.041 C 250.998 53.041 248.264 54.027 246.146 55.919 C 244.194 57.666 242.919 60.05 242.405 62.846 L 265.798 62.846 Z" fill="white"/>
  <path d="M 337.274 86.198 L 337.274 63.833 C 337.274 60.359 336.473 57.686 334.89 55.919 C 333.328 54.151 330.964 53.267 327.921 53.267 C 324.488 53.267 321.672 54.377 319.74 56.453 C 317.808 58.55 316.78 61.633 316.78 65.395 L 316.78 86.219 L 309.174 86.219 L 309.174 63.833 C 309.174 56.823 306.008 53.267 299.759 53.267 C 296.326 53.267 293.51 54.377 291.578 56.453 C 289.645 58.55 288.618 61.633 288.618 65.395 L 288.618 86.219 L 281.012 86.219 L 281.012 46.422 L 288.412 46.422 L 288.412 50.759 C 291.413 47.778 295.73 46.154 300.725 46.154 C 306.687 46.154 311.394 48.477 314.087 52.732 C 317.335 48.539 322.577 46.154 328.682 46.154 C 333.656 46.154 337.603 47.593 340.419 50.41 C 343.359 53.37 344.901 57.851 344.88 63.339 L 344.88 86.177 L 337.274 86.177 L 337.274 86.198 Z" fill="white"/>
  <path d="M 354.297 99.93 L 354.297 46.422 L 361.697 46.422 L 361.697 51.314 C 364.986 47.943 369.467 46.154 374.75 46.154 C 386.241 46.154 394.567 54.624 394.567 66.3 C 394.567 78.037 386.241 86.547 374.75 86.547 C 369.57 86.547 365.171 84.841 361.923 81.573 L 361.923 99.909 L 354.297 99.909 L 354.297 99.93 Z M 374.422 53.102 C 367.021 53.102 361.841 58.529 361.841 66.32 C 361.841 74.111 367.021 79.538 374.422 79.538 C 381.822 79.538 387.002 74.111 387.002 66.32 C 387.002 58.653 381.719 53.102 374.422 53.102 Z" fill="white"/>
  <path d="M 420.321 86.568 C 408.604 86.568 400.094 78.058 400.094 66.32 C 400.094 54.644 408.604 46.175 420.321 46.175 C 425.995 46.175 431.134 48.21 434.813 51.91 C 438.472 55.59 440.466 60.708 440.446 66.341 C 440.446 78.058 431.977 86.568 420.321 86.568 Z M 420.321 53.102 C 412.921 53.102 407.741 58.529 407.741 66.32 C 407.741 74.111 412.921 79.538 420.321 79.538 C 427.66 79.538 432.799 74.111 432.799 66.32 C 432.778 58.529 427.66 53.102 420.321 53.102 Z" fill="white"/>
  <path d="M 464.598 86.568 C 452.881 86.568 444.371 78.058 444.371 66.32 C 444.371 54.644 452.881 46.175 464.598 46.175 C 476.254 46.175 484.723 54.644 484.723 66.32 C 484.723 78.058 476.254 86.568 464.598 86.568 Z M 464.598 53.102 C 457.198 53.102 452.018 58.529 452.018 66.32 C 452.018 74.111 457.198 79.538 464.598 79.538 C 471.937 79.538 477.076 74.111 477.076 66.32 C 477.076 58.529 471.958 53.102 464.598 53.102 Z" fill="white"/>
  <path d="M 499.996 31.148 L 492.391 31.148 L 492.391 86.198 L 499.996 86.198 L 499.996 31.148 Z" fill="white"/>
  
  <!-- Block icon (left side) -->
  <path d="M124.706 110.25C124.706 118.849 117.772 125.791 109.183 125.791H15.5236C6.93387 125.791 0 118.849 0 110.25V16.4837C0 7.88416 6.98561 0.942383 15.5236 0.942383H109.183C117.772 0.942383 124.706 7.88416 124.706 16.4837V110.25Z" fill="#2E3349"/>
  <path d="M0 63.5225V110.25C0 118.849 6.98561 125.791 15.5753 125.791H109.183C117.772 125.791 124.758 118.849 124.758 110.25V63.5225H0Z" fill="url(#paint0_linear)"/>
  <path opacity="0.3" d="M109.909 109.11C109.909 111.026 108.615 112.581 107.011 112.581H90.8665C89.2624 112.581 87.9688 111.026 87.9688 109.11V17.6232C87.9688 15.7065 89.2624 14.1523 90.8665 14.1523H107.011C108.615 14.1523 109.909 15.7065 109.909 17.6232V109.11Z" fill="white"/>
  
  <defs>
    <linearGradient id="paint0_linear" x1="62.3768" y1="36.3949" x2="62.3768" y2="156.837" gradientUnits="userSpaceOnUse">
      <stop stop-color="#AE61FF"/>
      <stop offset="1" stop-color="#13EFD8"/>
    </linearGradient>
  </defs>
</svg>

