<svg xmlns="http://www.w3.org/2000/svg" xmlns:xlink="http://www.w3.org/1999/xlink" width="500" zoomAndPan="magnify" viewBox="0 0 375 94.499997" height="126" preserveAspectRatio="xMidYMid meet" version="1.0"><defs><filter x="0%" y="0%" width="100%" height="100%" id="4f782f7ef1"><feColorMatrix values="0 0 0 0 1 0 0 0 0 1 0 0 0 0 1 0 0 0 1 0" color-interpolation-filters="sRGB"/></filter><g/><clipPath id="2585ded9a3"><path d="M 1.070312 0 L 95.074219 0 L 95.074219 94.003906 L 1.070312 94.003906 Z M 1.070312 0 " clip-rule="nonzero"/></clipPath><clipPath id="b6f2304e9c"><path d="M 18.230469 0 L 77.914062 0 C 82.464844 0 86.832031 1.808594 90.050781 5.027344 C 93.265625 8.242188 95.074219 12.609375 95.074219 17.160156 L 95.074219 76.84375 C 95.074219 81.394531 93.265625 85.757812 90.050781 88.976562 C 86.832031 92.195312 82.464844 94.003906 77.914062 94.003906 L 18.230469 94.003906 C 13.679688 94.003906 9.316406 92.195312 6.097656 88.976562 C 2.878906 85.757812 1.070312 81.394531 1.070312 76.84375 L 1.070312 17.160156 C 1.070312 12.609375 2.878906 8.242188 6.097656 5.027344 C 9.316406 1.808594 13.679688 0 18.230469 0 Z M 18.230469 0 " clip-rule="nonzero"/></clipPath><clipPath id="57ee0b71c1"><path d="M 0.0703125 0 L 94.074219 0 L 94.074219 94.003906 L 0.0703125 94.003906 Z M 0.0703125 0 " clip-rule="nonzero"/></clipPath><clipPath id="9604077ae1"><path d="M 17.230469 0 L 76.914062 0 C 81.464844 0 85.832031 1.808594 89.050781 5.027344 C 92.265625 8.242188 94.074219 12.609375 94.074219 17.160156 L 94.074219 76.84375 C 94.074219 81.394531 92.265625 85.757812 89.050781 88.976562 C 85.832031 92.195312 81.464844 94.003906 76.914062 94.003906 L 17.230469 94.003906 C 12.679688 94.003906 8.316406 92.195312 5.097656 88.976562 C 1.878906 85.757812 0.0703125 81.394531 0.0703125 76.84375 L 0.0703125 17.160156 C 0.0703125 12.609375 1.878906 8.242188 5.097656 5.027344 C 8.316406 1.808594 12.679688 0 17.230469 0 Z M 17.230469 0 " clip-rule="nonzero"/></clipPath><clipPath id="c47568b76c"><rect x="0" width="95" y="0" height="95"/></clipPath><clipPath id="207eba45ef"><path d="M 111 12 L 374.011719 12 L 374.011719 80 L 111 80 Z M 111 12 " clip-rule="nonzero"/></clipPath><clipPath id="6b092157a5"><rect x="0" width="264" y="0" height="68"/></clipPath><clipPath id="1d7a4def6d"><path d="M 1.03125 52.324219 L 95.128906 52.324219 L 95.128906 94.003906 L 1.03125 94.003906 Z M 1.03125 52.324219 " clip-rule="nonzero"/></clipPath><clipPath id="3e7c6e8fdc"><path d="M 18.1875 52.324219 L 77.871094 52.324219 C 82.425781 52.324219 86.789062 54.132812 90.007812 57.351562 C 93.222656 60.570312 95.03125 64.933594 95.03125 69.484375 L 95.03125 76.84375 C 95.03125 81.394531 93.222656 85.757812 90.007812 88.976562 C 86.789062 92.195312 82.425781 94.003906 77.871094 94.003906 L 18.1875 94.003906 C 13.636719 94.003906 9.273438 92.195312 6.054688 88.976562 C 2.835938 85.757812 1.03125 81.394531 1.03125 76.84375 L 1.03125 69.484375 C 1.03125 64.933594 2.835938 60.570312 6.054688 57.351562 C 9.273438 54.132812 13.636719 52.324219 18.1875 52.324219 Z M 18.1875 52.324219 " clip-rule="nonzero"/></clipPath><clipPath id="467c30ae7e"><path d="M 0.03125 0.324219 L 93.96875 0.324219 L 93.96875 42.003906 L 0.03125 42.003906 Z M 0.03125 0.324219 " clip-rule="nonzero"/></clipPath><clipPath id="d09b887288"><path d="M 17.1875 0.324219 L 76.871094 0.324219 C 81.425781 0.324219 85.789062 2.132812 89.007812 5.351562 C 92.222656 8.570312 94.03125 12.933594 94.03125 17.484375 L 94.03125 24.84375 C 94.03125 29.394531 92.222656 33.757812 89.007812 36.976562 C 85.789062 40.195312 81.425781 42.003906 76.871094 42.003906 L 17.1875 42.003906 C 12.636719 42.003906 8.273438 40.195312 5.054688 36.976562 C 1.835938 33.757812 0.03125 29.394531 0.03125 24.84375 L 0.03125 17.484375 C 0.03125 12.933594 1.835938 8.570312 5.054688 5.351562 C 8.273438 2.132812 12.636719 0.324219 17.1875 0.324219 Z M 17.1875 0.324219 " clip-rule="nonzero"/></clipPath><linearGradient x1="288.698" gradientTransform="matrix(0.162804, 0, 0, 0.162804, 0.0290875, 0.324685)" y1="0" x2="288.698" gradientUnits="userSpaceOnUse" y2="256" id="8cb9fb9ddc"><stop stop-opacity="1" stop-color="rgb(30.979919%, 85.488892%, 46.669006%)" offset="0"/><stop stop-opacity="1" stop-color="rgb(31.282043%, 85.562134%, 46.827698%)" offset="0.00390625"/><stop stop-opacity="1" stop-color="rgb(31.585693%, 85.636902%, 46.987915%)" offset="0.0078125"/><stop stop-opacity="1" stop-color="rgb(31.889343%, 85.710144%, 47.146606%)" offset="0.0117188"/><stop stop-opacity="1" stop-color="rgb(32.192993%, 85.783386%, 47.306824%)" offset="0.015625"/><stop stop-opacity="1" stop-color="rgb(32.495117%, 85.856628%, 47.465515%)" offset="0.0195312"/><stop stop-opacity="1" stop-color="rgb(32.798767%, 85.929871%, 47.625732%)" offset="0.0234375"/><stop stop-opacity="1" stop-color="rgb(33.102417%, 86.003113%, 47.784424%)" offset="0.0273438"/><stop stop-opacity="1" stop-color="rgb(33.406067%, 86.077881%, 47.943115%)" offset="0.03125"/><stop stop-opacity="1" stop-color="rgb(33.708191%, 86.151123%, 48.101807%)" offset="0.0351562"/><stop stop-opacity="1" stop-color="rgb(34.011841%, 86.224365%, 48.262024%)" offset="0.0390625"/><stop stop-opacity="1" stop-color="rgb(34.315491%, 86.297607%, 48.420715%)" offset="0.0429687"/><stop stop-opacity="1" stop-color="rgb(34.619141%, 86.37085%, 48.580933%)" offset="0.046875"/><stop stop-opacity="1" stop-color="rgb(34.921265%, 86.444092%, 48.739624%)" offset="0.0507813"/><stop stop-opacity="1" stop-color="rgb(35.224915%, 86.51886%, 48.899841%)" offset="0.0546875"/><stop stop-opacity="1" stop-color="rgb(35.528564%, 86.592102%, 49.058533%)" offset="0.0585938"/><stop stop-opacity="1" stop-color="rgb(35.832214%, 86.665344%, 49.21875%)" offset="0.0625"/><stop stop-opacity="1" stop-color="rgb(36.134338%, 86.738586%, 49.377441%)" offset="0.0664062"/><stop stop-opacity="1" stop-color="rgb(36.437988%, 86.811829%, 49.536133%)" offset="0.0703125"/><stop stop-opacity="1" stop-color="rgb(36.741638%, 86.885071%, 49.694824%)" offset="0.0742188"/><stop stop-opacity="1" stop-color="rgb(37.045288%, 86.959839%, 49.855042%)" offset="0.078125"/><stop stop-opacity="1" stop-color="rgb(37.347412%, 87.033081%, 50.013733%)" offset="0.0820312"/><stop stop-opacity="1" stop-color="rgb(37.651062%, 87.106323%, 50.17395%)" offset="0.0859375"/><stop stop-opacity="1" stop-color="rgb(37.954712%, 87.179565%, 50.332642%)" offset="0.0898437"/><stop stop-opacity="1" stop-color="rgb(38.258362%, 87.254333%, 50.492859%)" offset="0.09375"/><stop stop-opacity="1" stop-color="rgb(38.560486%, 87.327576%, 50.65155%)" offset="0.0976563"/><stop stop-opacity="1" stop-color="rgb(38.864136%, 87.400818%, 50.810242%)" offset="0.101563"/><stop stop-opacity="1" stop-color="rgb(39.167786%, 87.47406%, 50.968933%)" offset="0.105469"/><stop stop-opacity="1" stop-color="rgb(39.471436%, 87.547302%, 51.12915%)" offset="0.109375"/><stop stop-opacity="1" stop-color="rgb(39.77356%, 87.620544%, 51.287842%)" offset="0.113281"/><stop stop-opacity="1" stop-color="rgb(40.077209%, 87.695312%, 51.448059%)" offset="0.117188"/><stop stop-opacity="1" stop-color="rgb(40.380859%, 87.768555%, 51.60675%)" offset="0.121094"/><stop stop-opacity="1" stop-color="rgb(40.684509%, 87.841797%, 51.766968%)" offset="0.125"/><stop stop-opacity="1" stop-color="rgb(40.986633%, 87.915039%, 51.925659%)" offset="0.128906"/><stop stop-opacity="1" stop-color="rgb(41.290283%, 87.988281%, 52.085876%)" offset="0.132812"/><stop stop-opacity="1" stop-color="rgb(41.593933%, 88.061523%, 52.244568%)" offset="0.136719"/><stop stop-opacity="1" stop-color="rgb(41.897583%, 88.136292%, 52.403259%)" offset="0.140625"/><stop stop-opacity="1" stop-color="rgb(42.199707%, 88.209534%, 52.561951%)" offset="0.144531"/><stop stop-opacity="1" stop-color="rgb(42.503357%, 88.282776%, 52.722168%)" offset="0.148438"/><stop stop-opacity="1" stop-color="rgb(42.807007%, 88.356018%, 52.880859%)" offset="0.152344"/><stop stop-opacity="1" stop-color="rgb(43.110657%, 88.42926%, 53.041077%)" offset="0.15625"/><stop stop-opacity="1" stop-color="rgb(43.412781%, 88.502502%, 53.199768%)" offset="0.160156"/><stop stop-opacity="1" stop-color="rgb(43.716431%, 88.577271%, 53.359985%)" offset="0.164062"/><stop stop-opacity="1" stop-color="rgb(44.020081%, 88.650513%, 53.518677%)" offset="0.167969"/><stop stop-opacity="1" stop-color="rgb(44.32373%, 88.723755%, 53.678894%)" offset="0.171875"/><stop stop-opacity="1" stop-color="rgb(44.625854%, 88.796997%, 53.837585%)" offset="0.175781"/><stop stop-opacity="1" stop-color="rgb(44.929504%, 88.870239%, 53.996277%)" offset="0.179687"/><stop stop-opacity="1" stop-color="rgb(45.233154%, 88.943481%, 54.154968%)" offset="0.183594"/><stop stop-opacity="1" stop-color="rgb(45.536804%, 89.01825%, 54.315186%)" offset="0.1875"/><stop stop-opacity="1" stop-color="rgb(45.838928%, 89.091492%, 54.473877%)" offset="0.191406"/><stop stop-opacity="1" stop-color="rgb(46.142578%, 89.164734%, 54.634094%)" offset="0.195313"/><stop stop-opacity="1" stop-color="rgb(46.446228%, 89.237976%, 54.792786%)" offset="0.199219"/><stop stop-opacity="1" stop-color="rgb(46.749878%, 89.312744%, 54.953003%)" offset="0.203125"/><stop stop-opacity="1" stop-color="rgb(47.053528%, 89.385986%, 55.111694%)" offset="0.207031"/><stop stop-opacity="1" stop-color="rgb(47.357178%, 89.459229%, 55.271912%)" offset="0.210938"/><stop stop-opacity="1" stop-color="rgb(47.659302%, 89.532471%, 55.430603%)" offset="0.214844"/><stop stop-opacity="1" stop-color="rgb(47.962952%, 89.605713%, 55.589294%)" offset="0.21875"/><stop stop-opacity="1" stop-color="rgb(48.266602%, 89.678955%, 55.747986%)" offset="0.222656"/><stop stop-opacity="1" stop-color="rgb(48.570251%, 89.753723%, 55.908203%)" offset="0.226562"/><stop stop-opacity="1" stop-color="rgb(48.872375%, 89.826965%, 56.066895%)" offset="0.230469"/><stop stop-opacity="1" stop-color="rgb(49.176025%, 89.900208%, 56.227112%)" offset="0.234375"/><stop stop-opacity="1" stop-color="rgb(49.479675%, 89.97345%, 56.385803%)" offset="0.238281"/><stop stop-opacity="1" stop-color="rgb(49.783325%, 90.046692%, 56.546021%)" offset="0.242188"/><stop stop-opacity="1" stop-color="rgb(50.085449%, 90.119934%, 56.704712%)" offset="0.246094"/><stop stop-opacity="1" stop-color="rgb(50.389099%, 90.194702%, 56.864929%)" offset="0.25"/><stop stop-opacity="1" stop-color="rgb(50.692749%, 90.267944%, 57.023621%)" offset="0.253906"/><stop stop-opacity="1" stop-color="rgb(50.996399%, 90.341187%, 57.182312%)" offset="0.257812"/><stop stop-opacity="1" stop-color="rgb(51.298523%, 90.414429%, 57.341003%)" offset="0.261719"/><stop stop-opacity="1" stop-color="rgb(51.602173%, 90.487671%, 57.501221%)" offset="0.265625"/><stop stop-opacity="1" stop-color="rgb(51.905823%, 90.560913%, 57.659912%)" offset="0.269531"/><stop stop-opacity="1" stop-color="rgb(52.209473%, 90.635681%, 57.820129%)" offset="0.273438"/><stop stop-opacity="1" stop-color="rgb(52.511597%, 90.708923%, 57.978821%)" offset="0.277344"/><stop stop-opacity="1" stop-color="rgb(52.815247%, 90.782166%, 58.139038%)" offset="0.28125"/><stop stop-opacity="1" stop-color="rgb(53.118896%, 90.855408%, 58.297729%)" offset="0.285156"/><stop stop-opacity="1" stop-color="rgb(53.422546%, 90.92865%, 58.457947%)" offset="0.289062"/><stop stop-opacity="1" stop-color="rgb(53.72467%, 91.001892%, 58.616638%)" offset="0.292969"/><stop stop-opacity="1" stop-color="rgb(54.02832%, 91.07666%, 58.77533%)" offset="0.296875"/><stop stop-opacity="1" stop-color="rgb(54.33197%, 91.149902%, 58.934021%)" offset="0.300781"/><stop stop-opacity="1" stop-color="rgb(54.63562%, 91.223145%, 59.094238%)" offset="0.304688"/><stop stop-opacity="1" stop-color="rgb(54.937744%, 91.296387%, 59.25293%)" offset="0.308594"/><stop stop-opacity="1" stop-color="rgb(55.241394%, 91.371155%, 59.413147%)" offset="0.3125"/><stop stop-opacity="1" stop-color="rgb(55.545044%, 91.444397%, 59.571838%)" offset="0.316406"/><stop stop-opacity="1" stop-color="rgb(55.848694%, 91.517639%, 59.732056%)" offset="0.320312"/><stop stop-opacity="1" stop-color="rgb(56.150818%, 91.590881%, 59.890747%)" offset="0.324219"/><stop stop-opacity="1" stop-color="rgb(56.454468%, 91.664124%, 60.049438%)" offset="0.328125"/><stop stop-opacity="1" stop-color="rgb(56.758118%, 91.737366%, 60.20813%)" offset="0.332031"/><stop stop-opacity="1" stop-color="rgb(57.061768%, 91.812134%, 60.368347%)" offset="0.335937"/><stop stop-opacity="1" stop-color="rgb(57.363892%, 91.885376%, 60.527039%)" offset="0.339844"/><stop stop-opacity="1" stop-color="rgb(57.667542%, 91.958618%, 60.687256%)" offset="0.34375"/><stop stop-opacity="1" stop-color="rgb(57.971191%, 92.03186%, 60.845947%)" offset="0.347656"/><stop stop-opacity="1" stop-color="rgb(58.274841%, 92.105103%, 61.006165%)" offset="0.351562"/><stop stop-opacity="1" stop-color="rgb(58.576965%, 92.178345%, 61.164856%)" offset="0.355469"/><stop stop-opacity="1" stop-color="rgb(58.880615%, 92.253113%, 61.325073%)" offset="0.359375"/><stop stop-opacity="1" stop-color="rgb(59.184265%, 92.326355%, 61.483765%)" offset="0.363281"/><stop stop-opacity="1" stop-color="rgb(59.487915%, 92.399597%, 61.642456%)" offset="0.367187"/><stop stop-opacity="1" stop-color="rgb(59.790039%, 92.472839%, 61.801147%)" offset="0.371094"/><stop stop-opacity="1" stop-color="rgb(60.093689%, 92.546082%, 61.961365%)" offset="0.375"/><stop stop-opacity="1" stop-color="rgb(60.397339%, 92.619324%, 62.120056%)" offset="0.378906"/><stop stop-opacity="1" stop-color="rgb(60.700989%, 92.694092%, 62.280273%)" offset="0.382813"/><stop stop-opacity="1" stop-color="rgb(61.003113%, 92.767334%, 62.438965%)" offset="0.386719"/><stop stop-opacity="1" stop-color="rgb(61.306763%, 92.840576%, 62.599182%)" offset="0.390625"/><stop stop-opacity="1" stop-color="rgb(61.610413%, 92.913818%, 62.757874%)" offset="0.394531"/><stop stop-opacity="1" stop-color="rgb(61.914062%, 92.988586%, 62.918091%)" offset="0.398438"/><stop stop-opacity="1" stop-color="rgb(62.216187%, 93.061829%, 63.076782%)" offset="0.402344"/><stop stop-opacity="1" stop-color="rgb(62.519836%, 93.135071%, 63.235474%)" offset="0.40625"/><stop stop-opacity="1" stop-color="rgb(62.823486%, 93.208313%, 63.394165%)" offset="0.410156"/><stop stop-opacity="1" stop-color="rgb(63.127136%, 93.281555%, 63.554382%)" offset="0.414063"/><stop stop-opacity="1" stop-color="rgb(63.42926%, 93.354797%, 63.713074%)" offset="0.417969"/><stop stop-opacity="1" stop-color="rgb(63.73291%, 93.429565%, 63.873291%)" offset="0.421875"/><stop stop-opacity="1" stop-color="rgb(64.03656%, 93.502808%, 64.031982%)" offset="0.425781"/><stop stop-opacity="1" stop-color="rgb(64.34021%, 93.57605%, 64.1922%)" offset="0.429688"/><stop stop-opacity="1" stop-color="rgb(64.642334%, 93.649292%, 64.350891%)" offset="0.433594"/><stop stop-opacity="1" stop-color="rgb(64.945984%, 93.722534%, 64.511108%)" offset="0.4375"/><stop stop-opacity="1" stop-color="rgb(65.249634%, 93.795776%, 64.6698%)" offset="0.441406"/><stop stop-opacity="1" stop-color="rgb(65.553284%, 93.870544%, 64.828491%)" offset="0.445312"/><stop stop-opacity="1" stop-color="rgb(65.856934%, 93.943787%, 64.987183%)" offset="0.449219"/><stop stop-opacity="1" stop-color="rgb(66.160583%, 94.017029%, 65.1474%)" offset="0.453125"/><stop stop-opacity="1" stop-color="rgb(66.462708%, 94.090271%, 65.306091%)" offset="0.457031"/><stop stop-opacity="1" stop-color="rgb(66.766357%, 94.163513%, 65.466309%)" offset="0.460938"/><stop stop-opacity="1" stop-color="rgb(67.070007%, 94.236755%, 65.625%)" offset="0.464844"/><stop stop-opacity="1" stop-color="rgb(67.373657%, 94.311523%, 65.785217%)" offset="0.46875"/><stop stop-opacity="1" stop-color="rgb(67.675781%, 94.384766%, 65.943909%)" offset="0.472656"/><stop stop-opacity="1" stop-color="rgb(67.979431%, 94.458008%, 66.104126%)" offset="0.476562"/><stop stop-opacity="1" stop-color="rgb(68.283081%, 94.53125%, 66.262817%)" offset="0.480469"/><stop stop-opacity="1" stop-color="rgb(68.586731%, 94.604492%, 66.421509%)" offset="0.484375"/><stop stop-opacity="1" stop-color="rgb(68.888855%, 94.677734%, 66.5802%)" offset="0.488281"/><stop stop-opacity="1" stop-color="rgb(69.192505%, 94.752502%, 66.740417%)" offset="0.492188"/><stop stop-opacity="1" stop-color="rgb(69.496155%, 94.825745%, 66.899109%)" offset="0.496094"/><stop stop-opacity="1" stop-color="rgb(69.799805%, 94.898987%, 67.059326%)" offset="0.5"/><stop stop-opacity="1" stop-color="rgb(69.799805%, 94.898987%, 67.059326%)" offset="1"/></linearGradient><clipPath id="9f0e9d85da"><rect x="0" width="95" y="0" height="43"/></clipPath><clipPath id="db67594781"><path d="M 0.988281 46.992188 L 95.070312 46.992188 L 95.070312 77.859375 L 0.988281 77.859375 Z M 0.988281 46.992188 " clip-rule="nonzero"/></clipPath><clipPath id="c5df08c92a"><path d="M 1.027344 0.992188 L 95.070312 0.992188 L 95.070312 31.859375 L 1.027344 31.859375 Z M 1.027344 0.992188 " clip-rule="nonzero"/></clipPath><linearGradient x1="390.18701" gradientTransform="matrix(-0.120568, 0, 0, -0.120568, 95.071897, 31.857581)" y1="0" x2="390.18701" gradientUnits="userSpaceOnUse" y2="255.999997" id="6ccbb71134"><stop stop-opacity="1" stop-color="rgb(69.799805%, 94.898987%, 67.059326%)" offset="0"/><stop stop-opacity="1" stop-color="rgb(69.647217%, 94.862366%, 66.97998%)" offset="0.0078125"/><stop stop-opacity="1" stop-color="rgb(69.343567%, 94.789124%, 66.819763%)" offset="0.015625"/><stop stop-opacity="1" stop-color="rgb(69.039917%, 94.715881%, 66.661072%)" offset="0.0234375"/><stop stop-opacity="1" stop-color="rgb(68.737793%, 94.641113%, 66.500854%)" offset="0.03125"/><stop stop-opacity="1" stop-color="rgb(68.434143%, 94.567871%, 66.342163%)" offset="0.0390625"/><stop stop-opacity="1" stop-color="rgb(68.130493%, 94.494629%, 66.183472%)" offset="0.046875"/><stop stop-opacity="1" stop-color="rgb(67.826843%, 94.421387%, 66.023254%)" offset="0.0546875"/><stop stop-opacity="1" stop-color="rgb(67.524719%, 94.348145%, 65.864563%)" offset="0.0625"/><stop stop-opacity="1" stop-color="rgb(67.221069%, 94.274902%, 65.704346%)" offset="0.0703125"/><stop stop-opacity="1" stop-color="rgb(66.917419%, 94.200134%, 65.545654%)" offset="0.078125"/><stop stop-opacity="1" stop-color="rgb(66.61377%, 94.126892%, 65.386963%)" offset="0.0859375"/><stop stop-opacity="1" stop-color="rgb(66.311646%, 94.05365%, 65.226746%)" offset="0.09375"/><stop stop-opacity="1" stop-color="rgb(66.007996%, 93.980408%, 65.068054%)" offset="0.101562"/><stop stop-opacity="1" stop-color="rgb(65.704346%, 93.907166%, 64.907837%)" offset="0.109375"/><stop stop-opacity="1" stop-color="rgb(65.400696%, 93.832397%, 64.749146%)" offset="0.117188"/><stop stop-opacity="1" stop-color="rgb(65.097046%, 93.759155%, 64.590454%)" offset="0.125"/><stop stop-opacity="1" stop-color="rgb(64.794922%, 93.685913%, 64.430237%)" offset="0.132812"/><stop stop-opacity="1" stop-color="rgb(64.491272%, 93.612671%, 64.271545%)" offset="0.140625"/><stop stop-opacity="1" stop-color="rgb(64.187622%, 93.539429%, 64.111328%)" offset="0.148438"/><stop stop-opacity="1" stop-color="rgb(63.883972%, 93.466187%, 63.952637%)" offset="0.15625"/><stop stop-opacity="1" stop-color="rgb(63.581848%, 93.391418%, 63.793945%)" offset="0.164062"/><stop stop-opacity="1" stop-color="rgb(63.278198%, 93.318176%, 63.633728%)" offset="0.171875"/><stop stop-opacity="1" stop-color="rgb(62.974548%, 93.244934%, 63.475037%)" offset="0.179688"/><stop stop-opacity="1" stop-color="rgb(62.670898%, 93.171692%, 63.314819%)" offset="0.1875"/><stop stop-opacity="1" stop-color="rgb(62.368774%, 93.09845%, 63.156128%)" offset="0.195312"/><stop stop-opacity="1" stop-color="rgb(62.065125%, 93.025208%, 62.997437%)" offset="0.203125"/><stop stop-opacity="1" stop-color="rgb(61.761475%, 92.950439%, 62.837219%)" offset="0.210938"/><stop stop-opacity="1" stop-color="rgb(61.457825%, 92.877197%, 62.678528%)" offset="0.21875"/><stop stop-opacity="1" stop-color="rgb(61.155701%, 92.803955%, 62.518311%)" offset="0.226562"/><stop stop-opacity="1" stop-color="rgb(60.852051%, 92.730713%, 62.359619%)" offset="0.234375"/><stop stop-opacity="1" stop-color="rgb(60.548401%, 92.657471%, 62.200928%)" offset="0.242188"/><stop stop-opacity="1" stop-color="rgb(60.244751%, 92.582703%, 62.04071%)" offset="0.25"/><stop stop-opacity="1" stop-color="rgb(59.942627%, 92.50946%, 61.882019%)" offset="0.257812"/><stop stop-opacity="1" stop-color="rgb(59.638977%, 92.436218%, 61.721802%)" offset="0.265625"/><stop stop-opacity="1" stop-color="rgb(59.335327%, 92.362976%, 61.56311%)" offset="0.273438"/><stop stop-opacity="1" stop-color="rgb(59.031677%, 92.289734%, 61.404419%)" offset="0.28125"/><stop stop-opacity="1" stop-color="rgb(58.729553%, 92.216492%, 61.244202%)" offset="0.289062"/><stop stop-opacity="1" stop-color="rgb(58.425903%, 92.141724%, 61.08551%)" offset="0.296875"/><stop stop-opacity="1" stop-color="rgb(58.122253%, 92.068481%, 60.925293%)" offset="0.304688"/><stop stop-opacity="1" stop-color="rgb(57.818604%, 91.995239%, 60.766602%)" offset="0.3125"/><stop stop-opacity="1" stop-color="rgb(57.516479%, 91.921997%, 60.60791%)" offset="0.320312"/><stop stop-opacity="1" stop-color="rgb(57.21283%, 91.848755%, 60.447693%)" offset="0.328125"/><stop stop-opacity="1" stop-color="rgb(56.90918%, 91.773987%, 60.289001%)" offset="0.335938"/><stop stop-opacity="1" stop-color="rgb(56.60553%, 91.700745%, 60.128784%)" offset="0.34375"/><stop stop-opacity="1" stop-color="rgb(56.303406%, 91.627502%, 59.970093%)" offset="0.351562"/><stop stop-opacity="1" stop-color="rgb(55.999756%, 91.55426%, 59.811401%)" offset="0.359375"/><stop stop-opacity="1" stop-color="rgb(55.696106%, 91.481018%, 59.651184%)" offset="0.367188"/><stop stop-opacity="1" stop-color="rgb(55.392456%, 91.407776%, 59.492493%)" offset="0.375"/><stop stop-opacity="1" stop-color="rgb(55.088806%, 91.333008%, 59.332275%)" offset="0.382812"/><stop stop-opacity="1" stop-color="rgb(54.786682%, 91.259766%, 59.173584%)" offset="0.390625"/><stop stop-opacity="1" stop-color="rgb(54.483032%, 91.186523%, 59.014893%)" offset="0.398438"/><stop stop-opacity="1" stop-color="rgb(54.179382%, 91.113281%, 58.854675%)" offset="0.40625"/><stop stop-opacity="1" stop-color="rgb(53.875732%, 91.040039%, 58.695984%)" offset="0.414062"/><stop stop-opacity="1" stop-color="rgb(53.573608%, 90.965271%, 58.537292%)" offset="0.421875"/><stop stop-opacity="1" stop-color="rgb(53.269958%, 90.892029%, 58.377075%)" offset="0.429688"/><stop stop-opacity="1" stop-color="rgb(52.966309%, 90.818787%, 58.218384%)" offset="0.4375"/><stop stop-opacity="1" stop-color="rgb(52.662659%, 90.745544%, 58.058167%)" offset="0.445312"/><stop stop-opacity="1" stop-color="rgb(52.360535%, 90.672302%, 57.899475%)" offset="0.453125"/><stop stop-opacity="1" stop-color="rgb(52.056885%, 90.59906%, 57.740784%)" offset="0.460938"/><stop stop-opacity="1" stop-color="rgb(51.753235%, 90.524292%, 57.580566%)" offset="0.46875"/><stop stop-opacity="1" stop-color="rgb(51.449585%, 90.45105%, 57.421875%)" offset="0.476562"/><stop stop-opacity="1" stop-color="rgb(51.147461%, 90.377808%, 57.261658%)" offset="0.484375"/><stop stop-opacity="1" stop-color="rgb(50.843811%, 90.304565%, 57.102966%)" offset="0.492188"/><stop stop-opacity="1" stop-color="rgb(50.540161%, 90.231323%, 56.944275%)" offset="0.5"/><stop stop-opacity="1" stop-color="rgb(50.236511%, 90.158081%, 56.784058%)" offset="0.507812"/><stop stop-opacity="1" stop-color="rgb(49.934387%, 90.083313%, 56.625366%)" offset="0.515625"/><stop stop-opacity="1" stop-color="rgb(49.630737%, 90.010071%, 56.465149%)" offset="0.523438"/><stop stop-opacity="1" stop-color="rgb(49.327087%, 89.936829%, 56.306458%)" offset="0.53125"/><stop stop-opacity="1" stop-color="rgb(49.023438%, 89.863586%, 56.147766%)" offset="0.539062"/><stop stop-opacity="1" stop-color="rgb(48.721313%, 89.790344%, 55.987549%)" offset="0.546875"/><stop stop-opacity="1" stop-color="rgb(48.417664%, 89.715576%, 55.828857%)" offset="0.554688"/><stop stop-opacity="1" stop-color="rgb(48.114014%, 89.642334%, 55.66864%)" offset="0.5625"/><stop stop-opacity="1" stop-color="rgb(47.810364%, 89.569092%, 55.509949%)" offset="0.570312"/><stop stop-opacity="1" stop-color="rgb(47.50824%, 89.49585%, 55.351257%)" offset="0.578125"/><stop stop-opacity="1" stop-color="rgb(47.20459%, 89.422607%, 55.19104%)" offset="0.585938"/><stop stop-opacity="1" stop-color="rgb(46.90094%, 89.349365%, 55.032349%)" offset="0.59375"/><stop stop-opacity="1" stop-color="rgb(46.59729%, 89.274597%, 54.872131%)" offset="0.601562"/><stop stop-opacity="1" stop-color="rgb(46.29364%, 89.201355%, 54.71344%)" offset="0.609375"/><stop stop-opacity="1" stop-color="rgb(45.991516%, 89.128113%, 54.554749%)" offset="0.617188"/><stop stop-opacity="1" stop-color="rgb(45.687866%, 89.054871%, 54.394531%)" offset="0.625"/><stop stop-opacity="1" stop-color="rgb(45.384216%, 88.981628%, 54.23584%)" offset="0.632812"/><stop stop-opacity="1" stop-color="rgb(45.080566%, 88.90686%, 54.075623%)" offset="0.640625"/><stop stop-opacity="1" stop-color="rgb(44.778442%, 88.833618%, 53.916931%)" offset="0.648438"/><stop stop-opacity="1" stop-color="rgb(44.474792%, 88.760376%, 53.75824%)" offset="0.65625"/><stop stop-opacity="1" stop-color="rgb(44.171143%, 88.687134%, 53.598022%)" offset="0.664062"/><stop stop-opacity="1" stop-color="rgb(43.867493%, 88.613892%, 53.439331%)" offset="0.671875"/><stop stop-opacity="1" stop-color="rgb(43.565369%, 88.540649%, 53.279114%)" offset="0.679688"/><stop stop-opacity="1" stop-color="rgb(43.261719%, 88.465881%, 53.120422%)" offset="0.6875"/><stop stop-opacity="1" stop-color="rgb(42.958069%, 88.392639%, 52.961731%)" offset="0.695312"/><stop stop-opacity="1" stop-color="rgb(42.654419%, 88.319397%, 52.801514%)" offset="0.703125"/><stop stop-opacity="1" stop-color="rgb(42.352295%, 88.246155%, 52.642822%)" offset="0.710938"/><stop stop-opacity="1" stop-color="rgb(42.048645%, 88.172913%, 52.482605%)" offset="0.71875"/><stop stop-opacity="1" stop-color="rgb(41.744995%, 88.098145%, 52.323914%)" offset="0.726562"/><stop stop-opacity="1" stop-color="rgb(41.441345%, 88.024902%, 52.165222%)" offset="0.734375"/><stop stop-opacity="1" stop-color="rgb(41.139221%, 87.95166%, 52.005005%)" offset="0.742188"/><stop stop-opacity="1" stop-color="rgb(40.835571%, 87.878418%, 51.846313%)" offset="0.75"/><stop stop-opacity="1" stop-color="rgb(40.531921%, 87.805176%, 51.686096%)" offset="0.757812"/><stop stop-opacity="1" stop-color="rgb(40.228271%, 87.731934%, 51.527405%)" offset="0.765625"/><stop stop-opacity="1" stop-color="rgb(39.926147%, 87.657166%, 51.368713%)" offset="0.773438"/><stop stop-opacity="1" stop-color="rgb(39.622498%, 87.583923%, 51.208496%)" offset="0.78125"/><stop stop-opacity="1" stop-color="rgb(39.318848%, 87.510681%, 51.049805%)" offset="0.789062"/><stop stop-opacity="1" stop-color="rgb(39.015198%, 87.437439%, 50.889587%)" offset="0.796875"/><stop stop-opacity="1" stop-color="rgb(38.713074%, 87.364197%, 50.730896%)" offset="0.804688"/><stop stop-opacity="1" stop-color="rgb(38.409424%, 87.290955%, 50.572205%)" offset="0.8125"/><stop stop-opacity="1" stop-color="rgb(38.105774%, 87.216187%, 50.411987%)" offset="0.820312"/><stop stop-opacity="1" stop-color="rgb(37.802124%, 87.142944%, 50.253296%)" offset="0.828125"/><stop stop-opacity="1" stop-color="rgb(37.498474%, 87.069702%, 50.093079%)" offset="0.835938"/><stop stop-opacity="1" stop-color="rgb(37.19635%, 86.99646%, 49.934387%)" offset="0.84375"/><stop stop-opacity="1" stop-color="rgb(36.8927%, 86.923218%, 49.775696%)" offset="0.851562"/><stop stop-opacity="1" stop-color="rgb(36.58905%, 86.84845%, 49.615479%)" offset="0.859375"/><stop stop-opacity="1" stop-color="rgb(36.2854%, 86.775208%, 49.456787%)" offset="0.867188"/><stop stop-opacity="1" stop-color="rgb(35.983276%, 86.701965%, 49.298096%)" offset="0.875"/><stop stop-opacity="1" stop-color="rgb(35.679626%, 86.628723%, 49.137878%)" offset="0.882812"/><stop stop-opacity="1" stop-color="rgb(35.375977%, 86.555481%, 48.979187%)" offset="0.890625"/><stop stop-opacity="1" stop-color="rgb(35.072327%, 86.482239%, 48.81897%)" offset="0.898438"/><stop stop-opacity="1" stop-color="rgb(34.770203%, 86.407471%, 48.660278%)" offset="0.90625"/><stop stop-opacity="1" stop-color="rgb(34.466553%, 86.334229%, 48.501587%)" offset="0.914062"/><stop stop-opacity="1" stop-color="rgb(34.162903%, 86.260986%, 48.34137%)" offset="0.921875"/><stop stop-opacity="1" stop-color="rgb(33.859253%, 86.187744%, 48.182678%)" offset="0.929688"/><stop stop-opacity="1" stop-color="rgb(33.557129%, 86.114502%, 48.022461%)" offset="0.9375"/><stop stop-opacity="1" stop-color="rgb(33.253479%, 86.039734%, 47.86377%)" offset="0.945312"/><stop stop-opacity="1" stop-color="rgb(32.949829%, 85.966492%, 47.705078%)" offset="0.953125"/><stop stop-opacity="1" stop-color="rgb(32.646179%, 85.89325%, 47.544861%)" offset="0.960938"/><stop stop-opacity="1" stop-color="rgb(32.344055%, 85.820007%, 47.386169%)" offset="0.96875"/><stop stop-opacity="1" stop-color="rgb(32.040405%, 85.746765%, 47.225952%)" offset="0.976562"/><stop stop-opacity="1" stop-color="rgb(31.736755%, 85.673523%, 47.067261%)" offset="0.984375"/><stop stop-opacity="1" stop-color="rgb(31.433105%, 85.598755%, 46.908569%)" offset="0.992188"/><stop stop-opacity="1" stop-color="rgb(31.130981%, 85.525513%, 46.748352%)" offset="1"/></linearGradient><clipPath id="5fb92d764c"><rect x="0" width="96" y="0" height="32"/></clipPath><mask id="2c1fd5553b"><g filter="url(#4f782f7ef1)"><rect x="-37.5" width="450" fill="#000000" y="-9.45" height="113.399996" fill-opacity="0.5"/></g></mask><clipPath id="a81b3795fa"><path d="M 0.417969 0.34375 L 11.964844 0.34375 L 11.964844 77.660156 L 0.417969 77.660156 Z M 0.417969 0.34375 " clip-rule="nonzero"/></clipPath><clipPath id="19679451f3"><path d="M 6.191406 0.34375 C 9.382812 0.34375 11.964844 2.925781 11.964844 6.117188 L 11.964844 71.886719 C 11.964844 75.074219 9.382812 77.660156 6.191406 77.660156 C 3.003906 77.660156 0.417969 75.074219 0.417969 71.886719 L 0.417969 6.117188 C 0.417969 2.925781 3.003906 0.34375 6.191406 0.34375 Z M 6.191406 0.34375 " clip-rule="nonzero"/></clipPath><clipPath id="0984eca191"><path d="M 0.417969 0.34375 L 11.964844 0.34375 L 11.964844 77.660156 L 0.417969 77.660156 Z M 0.417969 0.34375 " clip-rule="nonzero"/></clipPath><clipPath id="f2457e9e05"><path d="M 6.191406 0.34375 C 9.382812 0.34375 11.964844 2.925781 11.964844 6.117188 L 11.964844 71.886719 C 11.964844 75.074219 9.382812 77.660156 6.191406 77.660156 C 3.003906 77.660156 0.417969 75.074219 0.417969 71.886719 L 0.417969 6.117188 C 0.417969 2.925781 3.003906 0.34375 6.191406 0.34375 Z M 6.191406 0.34375 " clip-rule="nonzero"/></clipPath><clipPath id="a302cd1fd0"><rect x="0" width="12" y="0" height="78"/></clipPath><clipPath id="deae100147"><rect x="0" width="13" y="0" height="78"/></clipPath></defs><g clip-path="url(#2585ded9a3)"><g clip-path="url(#b6f2304e9c)"><g transform="matrix(1, 0, 0, 1, 1, 0)"><g clip-path="url(#c47568b76c)"><g clip-path="url(#57ee0b71c1)"><g clip-path="url(#9604077ae1)"><path fill="#003b5c" d="M 0.0703125 0 L 94.074219 0 L 94.074219 94.003906 L 0.0703125 94.003906 Z M 0.0703125 0 " fill-opacity="1" fill-rule="nonzero"/></g></g></g></g></g></g><g clip-path="url(#207eba45ef)"><g transform="matrix(1, 0, 0, 1, 111, 12)"><g clip-path="url(#6b092157a5)"><g fill="#ffffff" fill-opacity="1"><g transform="translate(0.276544, 52.455612)"><g><path d="M 3.78125 0 L 3.78125 -26.25 L 10.109375 -26.25 L 10.109375 -22.734375 L 10.609375 -22.640625 C 11.472656 -24.046875 12.476562 -25.082031 13.625 -25.75 C 14.78125 -26.414062 16.253906 -26.75 18.046875 -26.75 C 20.023438 -26.75 21.617188 -26.359375 22.828125 -25.578125 C 24.035156 -24.796875 24.914062 -23.648438 25.46875 -22.140625 L 25.96875 -22.140625 C 26.78125 -23.710938 27.820312 -24.875 29.09375 -25.625 C 30.375 -26.375 31.96875 -26.75 33.875 -26.75 C 39.3125 -26.75 42.03125 -23.71875 42.03125 -17.65625 L 42.03125 0 L 35.4375 0 L 35.4375 -16.828125 C 35.4375 -18.367188 35.132812 -19.476562 34.53125 -20.15625 C 33.9375 -20.84375 32.972656 -21.1875 31.640625 -21.1875 C 28.015625 -21.1875 26.203125 -18.765625 26.203125 -13.921875 L 26.203125 0 L 19.609375 0 L 19.609375 -16.828125 C 19.609375 -18.367188 19.300781 -19.476562 18.6875 -20.15625 C 18.082031 -20.84375 17.113281 -21.1875 15.78125 -21.1875 C 14.082031 -21.1875 12.753906 -20.617188 11.796875 -19.484375 C 10.847656 -18.347656 10.375 -16.539062 10.375 -14.0625 L 10.375 0 Z M 3.78125 0 "/></g></g></g><g fill="#ffffff" fill-opacity="1"><g transform="translate(45.696415, 52.455612)"><g><path d="M 3.78125 10.640625 L 3.78125 -26.25 L 10.375 -26.25 L 10.375 -22.828125 L 10.875 -22.734375 C 11.65625 -24.066406 12.695312 -25.066406 14 -25.734375 C 15.300781 -26.410156 16.820312 -26.75 18.5625 -26.75 C 20.675781 -26.75 22.519531 -26.25 24.09375 -25.25 C 25.675781 -24.25 26.90625 -22.726562 27.78125 -20.6875 C 28.664062 -18.65625 29.109375 -16.128906 29.109375 -13.109375 C 29.109375 -10.109375 28.644531 -7.59375 27.71875 -5.5625 C 26.789062 -3.53125 25.5 -2.007812 23.84375 -1 C 22.195312 0 20.296875 0.5 18.140625 0.5 C 16.503906 0.5 15.085938 0.226562 13.890625 -0.3125 C 12.703125 -0.863281 11.695312 -1.71875 10.875 -2.875 L 10.375 -2.78125 L 10.375 10.640625 Z M 16.3125 -5.09375 C 18.269531 -5.09375 19.753906 -5.734375 20.765625 -7.015625 C 21.785156 -8.304688 22.296875 -10.335938 22.296875 -13.109375 C 22.296875 -15.890625 21.785156 -17.925781 20.765625 -19.21875 C 19.753906 -20.507812 18.269531 -21.15625 16.3125 -21.15625 C 14.46875 -21.15625 13.003906 -20.488281 11.921875 -19.15625 C 10.847656 -17.820312 10.3125 -15.804688 10.3125 -13.109375 C 10.3125 -10.429688 10.847656 -8.425781 11.921875 -7.09375 C 13.003906 -5.757812 14.46875 -5.09375 16.3125 -5.09375 Z M 16.3125 -5.09375 "/></g></g></g><g fill="#ffffff" fill-opacity="1"><g transform="translate(77.142785, 52.455612)"><g><path d="M 15.265625 0.5 C 12.691406 0.5 10.429688 -0.0234375 8.484375 -1.078125 C 6.535156 -2.140625 5.023438 -3.6875 3.953125 -5.71875 C 2.890625 -7.757812 2.359375 -10.222656 2.359375 -13.109375 C 2.359375 -16.003906 2.890625 -18.472656 3.953125 -20.515625 C 5.023438 -22.566406 6.535156 -24.117188 8.484375 -25.171875 C 10.429688 -26.222656 12.691406 -26.75 15.265625 -26.75 C 17.828125 -26.75 20.082031 -26.222656 22.03125 -25.171875 C 23.976562 -24.117188 25.488281 -22.566406 26.5625 -20.515625 C 27.644531 -18.472656 28.1875 -16.003906 28.1875 -13.109375 C 28.1875 -10.222656 27.644531 -7.757812 26.5625 -5.71875 C 25.488281 -3.6875 23.976562 -2.140625 22.03125 -1.078125 C 20.082031 -0.0234375 17.828125 0.5 15.265625 0.5 Z M 15.265625 -5.09375 C 19.335938 -5.09375 21.375 -7.765625 21.375 -13.109375 C 21.375 -15.890625 20.847656 -17.925781 19.796875 -19.21875 C 18.753906 -20.507812 17.242188 -21.15625 15.265625 -21.15625 C 11.179688 -21.15625 9.140625 -18.472656 9.140625 -13.109375 C 9.140625 -7.765625 11.179688 -5.09375 15.265625 -5.09375 Z M 15.265625 -5.09375 "/></g></g></g><g fill="#ffffff" fill-opacity="1"><g transform="translate(107.660749, 52.455612)"><g><path d="M 15.265625 0.5 C 12.691406 0.5 10.429688 -0.0234375 8.484375 -1.078125 C 6.535156 -2.140625 5.023438 -3.6875 3.953125 -5.71875 C 2.890625 -7.757812 2.359375 -10.222656 2.359375 -13.109375 C 2.359375 -16.003906 2.890625 -18.472656 3.953125 -20.515625 C 5.023438 -22.566406 6.535156 -24.117188 8.484375 -25.171875 C 10.429688 -26.222656 12.691406 -26.75 15.265625 -26.75 C 17.828125 -26.75 20.082031 -26.222656 22.03125 -25.171875 C 23.976562 -24.117188 25.488281 -22.566406 26.5625 -20.515625 C 27.644531 -18.472656 28.1875 -16.003906 28.1875 -13.109375 C 28.1875 -10.222656 27.644531 -7.757812 26.5625 -5.71875 C 25.488281 -3.6875 23.976562 -2.140625 22.03125 -1.078125 C 20.082031 -0.0234375 17.828125 0.5 15.265625 0.5 Z M 15.265625 -5.09375 C 19.335938 -5.09375 21.375 -7.765625 21.375 -13.109375 C 21.375 -15.890625 20.847656 -17.925781 19.796875 -19.21875 C 18.753906 -20.507812 17.242188 -21.15625 15.265625 -21.15625 C 11.179688 -21.15625 9.140625 -18.472656 9.140625 -13.109375 C 9.140625 -7.765625 11.179688 -5.09375 15.265625 -5.09375 Z M 15.265625 -5.09375 "/></g></g></g><g fill="#ffffff" fill-opacity="1"><g transform="translate(138.178713, 52.455612)"><g><path d="M 10.90625 0.5 C 8.539062 0.5 6.734375 -0.132812 5.484375 -1.40625 C 4.242188 -2.6875 3.625 -4.628906 3.625 -7.234375 L 3.625 -36.796875 L 10.21875 -36.796875 L 10.21875 -7.5 C 10.21875 -5.894531 10.882812 -5.09375 12.21875 -5.09375 C 12.59375 -5.09375 12.992188 -5.15625 13.421875 -5.28125 L 13.765625 -5.1875 L 14.359375 -0.125 C 13.992188 0.0703125 13.507812 0.222656 12.90625 0.328125 C 12.300781 0.441406 11.632812 0.5 10.90625 0.5 Z M 10.90625 0.5 "/></g></g></g><g fill="#ffffff" fill-opacity="1"><g transform="translate(153.271061, 52.455612)"><g><path d="M 15.3125 0.5 C 12.769531 0.5 10.519531 -0.0234375 8.5625 -1.078125 C 6.613281 -2.140625 5.09375 -3.691406 4 -5.734375 C 2.90625 -7.785156 2.359375 -10.242188 2.359375 -13.109375 C 2.359375 -16.003906 2.90625 -18.472656 4 -20.515625 C 5.09375 -22.566406 6.609375 -24.117188 8.546875 -25.171875 C 10.484375 -26.222656 12.695312 -26.75 15.1875 -26.75 C 20.726562 -26.75 24.273438 -24.742188 25.828125 -20.734375 L 21.296875 -17.5 L 20.796875 -17.5 C 20.265625 -18.738281 19.566406 -19.65625 18.703125 -20.25 C 17.835938 -20.851562 16.664062 -21.15625 15.1875 -21.15625 C 13.28125 -21.15625 11.796875 -20.492188 10.734375 -19.171875 C 9.671875 -17.859375 9.140625 -15.835938 9.140625 -13.109375 C 9.140625 -10.410156 9.675781 -8.398438 10.75 -7.078125 C 11.832031 -5.753906 13.351562 -5.09375 15.3125 -5.09375 C 16.738281 -5.09375 17.945312 -5.476562 18.9375 -6.25 C 19.925781 -7.019531 20.632812 -8.125 21.0625 -9.5625 L 21.5625 -9.609375 L 26.25 -7.046875 C 25.582031 -4.828125 24.347656 -3.015625 22.546875 -1.609375 C 20.753906 -0.203125 18.34375 0.5 15.3125 0.5 Z M 15.3125 0.5 "/></g></g></g><g fill="#ffffff" fill-opacity="1"><g transform="translate(180.337317, 52.455612)"><g><path d="M 10.234375 0.5 C 8.554688 0.5 7.097656 0.191406 5.859375 -0.421875 C 4.617188 -1.046875 3.664062 -1.957031 3 -3.15625 C 2.332031 -4.351562 2 -5.789062 2 -7.46875 C 2 -9.03125 2.332031 -10.335938 3 -11.390625 C 3.664062 -12.441406 4.695312 -13.304688 6.09375 -13.984375 C 7.488281 -14.660156 9.3125 -15.179688 11.5625 -15.546875 C 13.132812 -15.796875 14.328125 -16.070312 15.140625 -16.375 C 15.960938 -16.675781 16.515625 -17.015625 16.796875 -17.390625 C 17.085938 -17.773438 17.234375 -18.265625 17.234375 -18.859375 C 17.234375 -19.691406 16.9375 -20.332031 16.34375 -20.78125 C 15.757812 -21.226562 14.785156 -21.453125 13.421875 -21.453125 C 11.960938 -21.453125 10.570312 -21.125 9.25 -20.46875 C 7.9375 -19.820312 6.796875 -18.96875 5.828125 -17.90625 L 5.359375 -17.90625 L 2.59375 -22.0625 C 3.925781 -23.539062 5.550781 -24.691406 7.46875 -25.515625 C 9.394531 -26.335938 11.492188 -26.75 13.765625 -26.75 C 17.234375 -26.75 19.742188 -26.007812 21.296875 -24.53125 C 22.859375 -23.0625 23.640625 -20.96875 23.640625 -18.25 L 23.640625 -6.859375 C 23.640625 -5.679688 24.15625 -5.09375 25.1875 -5.09375 C 25.582031 -5.09375 25.96875 -5.164062 26.34375 -5.3125 L 26.6875 -5.21875 L 27.15625 -0.625 C 26.789062 -0.382812 26.28125 -0.1875 25.625 -0.03125 C 24.976562 0.113281 24.269531 0.1875 23.5 0.1875 C 21.925781 0.1875 20.695312 -0.113281 19.8125 -0.71875 C 18.9375 -1.320312 18.304688 -2.265625 17.921875 -3.546875 L 17.421875 -3.59375 C 16.140625 -0.863281 13.742188 0.5 10.234375 0.5 Z M 12.328125 -4.421875 C 13.847656 -4.421875 15.066406 -4.929688 15.984375 -5.953125 C 16.898438 -6.984375 17.359375 -8.410156 17.359375 -10.234375 L 17.359375 -12.90625 L 16.90625 -13 C 16.507812 -12.675781 15.988281 -12.40625 15.34375 -12.1875 C 14.695312 -11.976562 13.769531 -11.769531 12.5625 -11.5625 C 11.132812 -11.332031 10.109375 -10.925781 9.484375 -10.34375 C 8.859375 -9.757812 8.546875 -8.9375 8.546875 -7.875 C 8.546875 -6.75 8.878906 -5.890625 9.546875 -5.296875 C 10.210938 -4.710938 11.140625 -4.421875 12.328125 -4.421875 Z M 12.328125 -4.421875 "/></g></g></g><g fill="#ffffff" fill-opacity="1"><g transform="translate(208.022503, 52.455612)"><g><path d="M 12.28125 0.5 C 10.488281 0.5 8.847656 0.289062 7.359375 -0.125 C 5.867188 -0.550781 4.59375 -1.128906 3.53125 -1.859375 C 2.476562 -2.597656 1.695312 -3.445312 1.1875 -4.40625 L 4.859375 -8.359375 L 5.359375 -8.359375 C 6.234375 -7.179688 7.265625 -6.296875 8.453125 -5.703125 C 9.640625 -5.117188 10.929688 -4.828125 12.328125 -4.828125 C 13.617188 -4.828125 14.585938 -5.054688 15.234375 -5.515625 C 15.878906 -5.984375 16.203125 -6.644531 16.203125 -7.5 C 16.203125 -8.164062 15.96875 -8.722656 15.5 -9.171875 C 15.039062 -9.628906 14.285156 -9.984375 13.234375 -10.234375 L 9.765625 -11.0625 C 7.160156 -11.6875 5.257812 -12.632812 4.0625 -13.90625 C 2.863281 -15.1875 2.265625 -16.8125 2.265625 -18.78125 C 2.265625 -20.414062 2.679688 -21.832031 3.515625 -23.03125 C 4.347656 -24.238281 5.519531 -25.160156 7.03125 -25.796875 C 8.550781 -26.429688 10.316406 -26.75 12.328125 -26.75 C 14.691406 -26.75 16.648438 -26.40625 18.203125 -25.71875 C 19.765625 -25.039062 20.984375 -24.132812 21.859375 -23 L 18.328125 -19.1875 L 17.859375 -19.1875 C 17.128906 -20.007812 16.304688 -20.609375 15.390625 -20.984375 C 14.472656 -21.367188 13.453125 -21.5625 12.328125 -21.5625 C 9.722656 -21.5625 8.421875 -20.753906 8.421875 -19.140625 C 8.421875 -18.453125 8.660156 -17.894531 9.140625 -17.46875 C 9.628906 -17.039062 10.488281 -16.691406 11.71875 -16.421875 L 14.953125 -15.703125 C 17.617188 -15.140625 19.566406 -14.222656 20.796875 -12.953125 C 22.023438 -11.691406 22.640625 -10 22.640625 -7.875 C 22.640625 -6.207031 22.222656 -4.738281 21.390625 -3.46875 C 20.566406 -2.207031 19.378906 -1.226562 17.828125 -0.53125 C 16.273438 0.15625 14.425781 0.5 12.28125 0.5 Z M 12.28125 0.5 "/></g></g></g><g fill="#ffffff" fill-opacity="1"><g transform="translate(232.232164, 52.455612)"><g><path d="M 3.78125 0 L 3.78125 -36.796875 L 10.375 -36.796875 L 10.375 -22.828125 L 10.875 -22.734375 C 11.75 -24.015625 12.820312 -25.003906 14.09375 -25.703125 C 15.363281 -26.398438 16.894531 -26.75 18.6875 -26.75 C 24.476562 -26.75 27.375 -23.46875 27.375 -16.90625 L 27.375 0 L 20.78125 0 L 20.78125 -16.0625 C 20.78125 -17.851562 20.421875 -19.15625 19.703125 -19.96875 C 18.992188 -20.78125 17.882812 -21.1875 16.375 -21.1875 C 14.53125 -21.1875 13.066406 -20.570312 11.984375 -19.34375 C 10.910156 -18.113281 10.375 -16.195312 10.375 -13.59375 L 10.375 0 Z M 3.78125 0 "/></g></g></g></g></g></g><g clip-path="url(#1d7a4def6d)"><g clip-path="url(#3e7c6e8fdc)"><g transform="matrix(1, 0, 0, 1, 1, 52)"><g clip-path="url(#9f0e9d85da)"><g clip-path="url(#467c30ae7e)"><g clip-path="url(#d09b887288)"><path fill="url(#8cb9fb9ddc)" d="M 0.03125 0.324219 L 0.03125 42.003906 L 93.96875 42.003906 L 93.96875 0.324219 Z M 0.03125 0.324219 " fill-rule="nonzero"/></g></g></g></g></g></g><g clip-path="url(#db67594781)"><g transform="matrix(1, 0, 0, 1, 0.000000000000000111, 46)"><g clip-path="url(#5fb92d764c)"><g clip-path="url(#c5df08c92a)"><path fill="url(#6ccbb71134)" d="M 95.070312 31.859375 L 95.070312 0.992188 L 1.027344 0.992188 L 1.027344 31.859375 Z M 95.070312 31.859375 " fill-rule="nonzero"/></g></g></g></g><g mask="url(#2c1fd5553b)"><g transform="matrix(1, 0, 0, 1, 73, 8)"><g clip-path="url(#deae100147)"><g clip-path="url(#a81b3795fa)"><g clip-path="url(#19679451f3)"><g><g clip-path="url(#a302cd1fd0)"><g clip-path="url(#0984eca191)"><g clip-path="url(#f2457e9e05)"><path fill="#ffffff" d="M 0.417969 0.34375 L 11.964844 0.34375 L 11.964844 77.660156 L 0.417969 77.660156 Z M 0.417969 0.34375 " fill-opacity="1" fill-rule="nonzero"/></g></g></g></g></g></g></g></g></g></svg>